<?xml version="1.0" standalone="no"?><svg xmlns="http://www.w3.org/2000/svg" viewBox="0 0 1440 320"><path fill="#53ce78" fill-opacity="1" d="M0,128L17.1,133.3C34.3,139,69,149,103,170.7C137.1,192,171,224,206,250.7C240,277,274,299,309,298.7C342.9,299,377,277,411,234.7C445.7,192,480,128,514,90.7C548.6,53,583,43,617,74.7C651.4,107,686,181,720,224C754.3,267,789,277,823,245.3C857.1,213,891,139,926,112C960,85,994,107,1029,133.3C1062.9,160,1097,192,1131,197.3C1165.7,203,1200,181,1234,149.3C1268.6,117,1303,75,1337,69.3C1371.4,64,1406,96,1423,112L1440,128L1440,0L1422.9,0C1405.7,0,1371,0,1337,0C1302.9,0,1269,0,1234,0C1200,0,1166,0,1131,0C1097.1,0,1063,0,1029,0C994.3,0,960,0,926,0C891.4,0,857,0,823,0C788.6,0,754,0,720,0C685.7,0,651,0,617,0C582.9,0,549,0,514,0C480,0,446,0,411,0C377.1,0,343,0,309,0C274.3,0,240,0,206,0C171.4,0,137,0,103,0C68.6,0,34,0,17,0L0,0Z"></path></svg>